# xmcd
#
# Track frame offsets:
#	150
#	18985
#	41177
#	63456
#	79933
#	109417
#	138016
#	160045
#	179079
#	202990
#	225643
#
# Disc length: 3325 seconds
#
# Revision: 0
# Processed by: cddbd v1.5.2PL0 Copyright (c) Steve Scherf et al.
# Submitted via: EasyCDDAExtractor 15.0.0.1
#
DISCID=920cfb0b
DTITLE=Laurie Morvan Band - Breathe Deep
DYEAR=2011
DGENRE=Blues Female
TTITLE0=No Working During Drinking Hours
TTITLE1=Saved By The Blues
TTITLE2=Mojo Mama
TTITLE3=Back Up the Train
TTITLE4=It Only Hurts When I Breathe
TTITLE5=I've Had Enough
TTITLE6=Bad Love Blues
TTITLE7=Beat Up From the Feet Up
TTITLE8=Hurtin' and Healin'
TTITLE9=Thelma and Louise
TTITLE10=Long Time 'til I'm Gone
EXTD=
EXTT0=
EXTT1=
EXTT2=
EXTT3=
EXTT4=
EXTT5=
EXTT6=
EXTT7=
EXTT8=
EXTT9=
EXTT10=
PLAYORDER=
